<svg xmlns="http://www.w3.org/2000/svg" viewBox="0 0 3496.51 361.34"><defs><style>.cls-1{font-size:70.92px;font-family:SerpentineDEE-BoldItal, SerpentineDEEBol;font-weight:700;font-style:italic;}.cls-1,.cls-2,.cls-3{fill:#1d1d1b;}.cls-2{font-size:29.86px;font-family:Montserrat-Thin, Montserrat;font-weight:200;}</style></defs><g id="Layer_2" data-name="Layer 2"><g id="Layer_1-2" data-name="Layer 1"><text class="cls-1" transform="translate(3108.43 315)">AQUA JET</text><text class="cls-2" transform="translate(3182.15 355.24)">WATER SPORTS</text><path class="cls-3" d="M3115.5,200c27.95-24.48,60.67-36.43,99.44-29.6-4.94-7.78-10.12-14.53-13.57-22.06-1.5-3.3-1-10.08,1.29-12,4.76-4,8.77-.65,11.9,4.56a103.16,103.16,0,0,0,16.74,21c-2.72-5.2-5.85-10.22-8.07-15.62-4.71-11.46-1.67-17.4,10.72-17.23,12.68.17,25.88,1.39,37.86,5.23,28.72,9.21,56.87,20.22,86,29.38-20.67-9.65-40.66-21.38-62.18-28.4-23.88-7.78-49.11-11.49-73.87-16.41-5.48-1.09-11.56-.46-17.16.53-11.8,2.09-14.36,6.28-12.4,18.21l-2.69.61c-1.46-6.48-4.62-13.14-4-19.4.88-8.6,8.66-13.74,16.48-14.15,15.69-.83,31.69-1.13,47.2,1,16.8,2.33,33.19,7.69,49.76,11.73.21-.89-23.3-10-23.08-10.88-26.22-6.12-28.72-4-55.65-10.32,8.87-6.12,27-22.4,37.28-29.48.16,2.76-8.48,13.85-8.44,14.59l39.77-9c-4.08-10.58-13.56-9.26-22.82-9,10.08-6.67,19.7-4.72,33.79,7.94L3315.06,41l-8.25-10.66c8.88-2.73,17.23-4.72,14.52-17.4l-17.45,6.59c2.77-15.14,10-21.47,22-19,6.14,1.26,11.78,15.61,10,23.7l30.27,17c-6.57,12.54-3.92,21.41,7.29,29.08,0,2.77-1.05,6.19.17,8.3,8.33,14.41,4.58,27.89-2.22,41.36-7,13.94-4.31,18.42,10.81,18.86,6.3.18,15.33-3.53,15.26,8.82,0,1.08,5.39,2.18,11.24,4.38l-11.16,11.55c14.08,7.07,35.73,6.86,47,26.88l-50,10.44.16,2.07,88.89-10.2.51,1.86c-22.92,5.07-45.65,11.42-68.81,15-54,8.26-107.13-.23-160.06-10.67-31.8-6.28-63.69-13.81-96.4-9.19C3144,191.79,3129.55,196.57,3115.5,200Zm209.25-91.58c9.27-8,3.69-28.58-1.4-37.11-6.21.37-9.46,13.39-17.43,13.86ZM3350.9,112c-4.43,6-8.08,10.91-12.71,17.16l12.71,4Z"/><path class="cls-3" d="M3154.36,218c21.26-17.47,51.07-13.37,76.31-9.58,12.7,1.9,25.82,4.15,38.34,6.65,20.47,4.08,40.44,8.62,61.16,10,10.83.67,21.77.69,32.6.49,12.32-.21,24.73-.83,37-2.24a326.3,326.3,0,0,0,55.58-12.05l.91,1.66A128.43,128.43,0,0,1,3422,233.28a161.88,161.88,0,0,1-38.87,10.42c-18.34,2.72-36.9,1.68-55.05-1.51-33.72-5.77-66.09-16.92-99.29-24.49-24-5.71-51.18-12.44-73.33,1.82l-1.14-1.52Z"/><path d="M22.13,169.71c10.9-9.43,4.35-33.59-1.64-43.62-7.3.43-11.12,15.73-20.49,16.29Z"/></g></g></svg>