<svg xmlns="http://www.w3.org/2000/svg" viewBox="0 0 616.15 167.43"><defs><style>.cls-1{font-size:70.92px;font-family:SerpentineDEE-BoldItal, SerpentineDEEBol;font-weight:700;font-style:italic;}.cls-1,.cls-2,.cls-3{fill:#1d1d1b;}.cls-2{font-size:29.86px;font-family:Montserrat-Thin, Montserrat;font-weight:200;}</style></defs><g id="Layer_2" data-name="Layer 2"><g id="Layer_1-2" data-name="Layer 1"><text class="cls-1" transform="translate(228.08 93.33)">AQUA JET</text><text class="cls-2" transform="translate(301.79 133.57)">WATER SPORTS</text><path class="cls-3" d="M0,136.57c19.08-16.72,41.43-24.88,67.9-20.21-3.37-5.32-6.91-9.92-9.26-15.07-1-2.25-.7-6.88.88-8.2,3.25-2.71,6-.44,8.13,3.11a69.82,69.82,0,0,0,11.43,14.35c-1.86-3.55-4-7-5.52-10.67C70.35,92.06,72.43,88,80.88,88.12c8.66.12,17.67.95,25.86,3.57,19.61,6.29,38.83,13.81,58.73,20.06-14.11-6.59-27.76-14.6-42.46-19.39-16.31-5.31-33.54-7.85-50.44-11.21a32.83,32.83,0,0,0-11.72.36C52.79,82.94,51,85.81,52.38,94l-1.83.41c-1-4.42-3.16-9-2.72-13.24.59-5.88,5.91-9.38,11.25-9.67,10.72-.56,21.64-.76,32.23.7,11.48,1.59,22.67,5.25,34,8,.15-.61-15.91-6.82-15.76-7.43-17.91-4.18-19.61-2.75-38-7C77.59,61.5,90,50.39,97,45.56c.11,1.88-5.79,9.46-5.76,10l27.15-6.13c-2.79-7.22-9.26-6.32-15.59-6.14,6.89-4.56,13.46-3.23,23.08,5.42,3.59-7.14,7-13.86,10.4-20.68l-5.63-7.28c6.06-1.86,11.77-3.22,9.92-11.88l-11.92,4.5c1.89-10.34,6.8-14.66,15-13,4.19.86,8.05,10.65,6.8,16.18l20.67,11.59c-4.48,8.57-2.68,14.62,5,19.86,0,1.9-.72,4.23.12,5.67,5.69,9.84,3.13,19-1.52,28.25-4.81,9.51-2.94,12.57,7.38,12.87,4.3.13,10.47-2.41,10.42,6,0,.73,3.69,1.49,7.68,3l-7.62,7.89c9.61,4.82,24.4,4.68,32.09,18.35l-34.18,7.13.12,1.41,60.7-7,.35,1.27c-15.66,3.46-31.18,7.8-47,10.22-36.87,5.63-73.15-.16-109.29-7.29-21.72-4.29-43.5-9.43-65.84-6.28C19.43,131,9.59,134.23,0,136.57ZM142.89,74c6.33-5.48,2.52-19.51-1-25.34-4.24.25-6.45,9.14-11.9,9.47Zm17.86,2.44-8.68,11.72,8.68,2.74Z"/><path class="cls-3" d="M26.54,148.87c14.55-11.87,34.87-9.14,52.11-6.54,21.72,2.87,43.08,9,64.76,11.11a292.11,292.11,0,0,0,50.71-.95,223.71,223.71,0,0,0,37.95-8.23l.62,1.13a87.72,87.72,0,0,1-23.36,13.91c-21.26,8.86-45.09,10.14-67.49,5.48C120,160.71,99,153.58,77.4,148.67c-16.43-3.92-34.93-8.44-50.09,1.23l-.77-1Z"/></g></g></svg>