<svg xmlns="http://www.w3.org/2000/svg" viewBox="0 0 464.25 308.98"><defs><style>.cls-1{fill:#1d1d1b;}</style></defs><g id="Layer_2" data-name="Layer 2"><g id="Layer_1-2" data-name="Layer 1"><path class="cls-1" d="M0,252c35.21-30.84,76.43-45.89,125.27-37.29-6.22-9.81-12.75-18.3-17.09-27.79-1.9-4.16-1.29-12.71,1.62-15.13,6-5,11-.82,15,5.74A129.47,129.47,0,0,0,145.89,204c-3.43-6.54-7.38-12.88-10.18-19.68-5.93-14.44-2.1-21.92,13.51-21.7,16,.21,32.6,1.75,47.69,6.58,36.19,11.6,71.65,25.48,108.36,37-26-12.15-51.22-26.93-78.34-35.77-30.08-9.8-61.87-14.48-93.06-20.67-6.9-1.38-14.56-.59-21.61.66C97.4,153,94.17,158.3,96.64,173.32l-3.39.77c-1.84-8.17-5.82-16.55-5-24.44,1.11-10.84,10.91-17.31,20.76-17.83,19.78-1,39.93-1.41,59.47,1.29,21.17,2.93,41.81,9.69,62.68,14.78.27-1.12-29.34-12.59-29.08-13.71-33-7.71-36.17-5.08-70.1-13,11.17-7.71,34-28.22,47-37.14.21,3.48-10.68,17.45-10.62,18.38l50.09-11.3c-5.14-13.32-17.08-11.67-28.75-11.34,12.7-8.4,24.83-6,42.58,10,6.62-13.16,12.86-25.58,19.19-38.15L241,38.21c11.19-3.44,21.71-5.94,18.29-21.92l-22,8.3C240.81,5.52,249.86-2.46,265,.66c7.73,1.58,14.84,19.66,12.54,29.85L315.72,51.9c-8.28,15.8-5,27,9.18,36.64,0,3.5-1.33,7.8.21,10.46,10.51,18.14,5.78,35.13-2.79,52.1-8.88,17.56-5.43,23.21,13.61,23.76,7.94.23,19.32-4.45,19.23,11.12,0,1.35,6.79,2.74,14.16,5.52-5.9,6.1-10.09,10.43-14.06,14.55,17.74,8.9,45,8.64,59.19,33.86l-63,13.14c.06.87.13,1.74.2,2.62l112-12.85c.21.78.43,1.56.64,2.34-28.88,6.39-57.52,14.39-86.69,18.85-68,10.4-135-.29-201.64-13.45-40.07-7.9-80.24-17.39-121.45-11.57C35.84,241.62,17.69,247.64,0,252ZM263.61,136.57c11.67-10.1,4.65-36-1.77-46.74-7.82.46-11.91,16.86-21.95,17.46C249,118.57,256.14,127.36,263.61,136.57Zm32.94,4.5-16,21.63,16,5.06Z"/><path class="cls-1" d="M49,274.64c30.42-24.64,72.69-15.4,108.15-10.2,36,5.31,71.32,15.32,107.45,18.63,13.63,1.15,27.44,1.32,41.11,1.14a494.11,494.11,0,0,0,52.44-2.9c23.93-2.86,46.47-8.12,70-15.18l1.14,2.09c-12.71,10.84-27.5,19.2-43.09,25.66a203.43,203.43,0,0,1-49,13.13c-25.2,3.76-50.71,1.8-75.55-3-40.3-7.49-79.09-20.66-118.89-29.72-30.29-7.21-64.47-15.68-92.39,2.28L49,274.64Z"/></g></g></svg>