<svg xmlns="http://www.w3.org/2000/svg" viewBox="0 0 357.78 357.9"><defs><style>.cls-1{fill:#1d1d1b;}</style></defs><g id="Layer_2" data-name="Layer 2"><g id="Layer_1-2" data-name="Layer 1"><path class="cls-1" d="M216.58,128.57c-9.52-8.19-19.44-14.71-30.75-18.77-31.53-11.33-60.6-6.67-86.47,14.64-19.18,15.8-29.28,36.79-32.61,61.24-2.87,21,.1,41,10.47,59.61,10.51,18.88,25.79,33,44.29,43.89a146.49,146.49,0,0,0,54.71,18.76,162,162,0,0,0,86.61-11.46c31.66-13.44,56.89-34.94,77.75-61.93,4.52-5.85,8.77-11.91,12.92-18.07a105.81,105.81,0,0,1-4.75,18.65A179.28,179.28,0,0,1,213.57,354.45,173,173,0,0,1,171,357.7c-31-1.51-59.86-10.2-86.25-26.65a177.57,177.57,0,0,1-68.31-77.14A173.39,173.39,0,0,1,1.05,198.09c-3.17-30.69.77-60.35,12.78-88.82,7.23-17.13,17.08-32.46,31.44-44.64A105.22,105.22,0,0,1,93.58,41.35c25.94-5.15,51-2.11,74.72,9.58,17.93,8.83,32.06,21.78,40.83,40A77.45,77.45,0,0,1,216.58,128.57Z"/><path class="cls-1" d="M329.25,232.44a168.43,168.43,0,0,0,4.08-21.21c2.91-24.85-.2-48.92-10.49-71.68C302.41,94.37,267.53,67,218.92,57.33a107.5,107.5,0,0,0-23.29-2,6.46,6.46,0,0,1-4.41-1.49C173.94,40.48,154.27,33,132.69,30.27a124.44,124.44,0,0,0-63.22,8.21c-.42.17-.81.53-1.43.08A170.38,170.38,0,0,1,91.23,23C121,6.35,152.9-1.68,186.83.29c60.52,3.53,108,30.82,141.89,81.07,15.08,22.34,23.94,47.19,27.44,73.94a167.58,167.58,0,0,1,1.19,34.75,5.57,5.57,0,0,1-.68,2.72c-8.27,13-16.14,26.27-25.8,38.35C330.47,231.61,330.22,232.32,329.25,232.44Z"/><path class="cls-1" d="M131.47,176.81c-.18-4.63,2.46-8,3.93-11.65.47-1.18,2.19-1.56,3.51-1.61,3.32-.12,6.66-.07,10,0a3,3,0,0,1,1.6.5c3.29,2.42,6.57,4.87,9.81,7.38.61.47,1.66,1,1.22,2-.36.82-1.39.52-2.07.43-2.36-.3-3.23.85-3.41,3a11.75,11.75,0,0,1-.72,2.75c-.36,1.11-1.35,1.86.36,3.18,1.19.91.26,3.24-.66,4.74a18.56,18.56,0,0,1-1.75,2.13.7.7,0,0,0,.82.67,24.8,24.8,0,0,1,11,2.54,24.59,24.59,0,0,0,9.14,2,15.46,15.46,0,0,1,6.64,1.46c2,1.08,3.13.37,4.33-1.09,1.63-2,3.54-3.77,5-5.89,2.12-3.12,4.78-3.5,8.2-2.74,6.14,1.35,12.13,3.19,18.17,4.87,11.17,3.11,22.68,5,33.5,9.29,6.11,2.39,12.34,3.78,18.65,5.36,11.44,2.87,23.14,3.22,34.59,5.41a57.44,57.44,0,0,1,15.48,5.7,16.66,16.66,0,0,1,4.78,3.57c1.41,1.55,1.35,2.87-.59,3.88a3.77,3.77,0,0,0-1.73,1.42c-6.5,11.21-17.06,17.39-28.32,22.59-17.4,8-35.89,12.46-54.63,15.88-27,4.93-54.27,7.46-81.77,6.41a41.31,41.31,0,0,1-13.71-2.37c-2.22-.88-4.3-1.87-4.66-4.81-.27-2.14-2.3-2.55-4.13-2.87-4.37-.77-4.65-1.56-2.73-5.64,2.79-5.94,5.4-12,8.08-17.95a3.06,3.06,0,0,0,.39-1.92,21.54,21.54,0,0,1,.64-10.15c.45-1.72.26-2.34-1.88-1.9-7.58,1.56-15.19.67-22.69-.59-5.23-.88-8.61-4.2-9.67-9.61a58.83,58.83,0,0,1-1-8.48c-.08-1.48.29-3-.93-4.32-.68-.72-.13-1.64.3-2.38a69.39,69.39,0,0,1,12.75-16.4A16.88,16.88,0,0,1,131.47,176.81Zm108.55,29,0-.37c-3.15-1-6.3-1.94-9.44-2.94-4-1.27-7.93-2.69-12.23-2.42a237.62,237.62,0,0,0-29.33,4.12,2.32,2.32,0,0,0-1.91,1.84c-.94,3-3.41,3.26-6,3.29-2.72,0-5.57.57-6.93-2.91-1.51-3.9-4.33-5.6-8.7-5.32-7.44.47-14.64-.47-20.8-5.31-.74-.58-1.77-1.06-2.63-.26-3,2.87-6.69,5-9.34,8.34-1.48,1.84-1,2.5,1.2,3,5.86,1.23,11.7,2.55,17.15,5.18a10.23,10.23,0,0,1,5.71,6.35A110,110,0,0,0,162,230.74c1.05,2.26,2.4,2.69,4.62,2.41,7.17-.88,14.34-2,21.54-2.29,5.52-.2,8.73-2.26,10.16-7.58.47-1.73,1.14-3.82,3.2-4.46,1.79-.56,2.41-1.83,3.12-3.36,1.94-4.13,4.49-7,9.86-7.15C223,208,231.51,206.72,240,205.84Zm-85.48,28.57c-1.82-2.94-3.26-5.29-5-8.16-1.07,4.74-3.55,8.25-4.43,12.55C147.39,236,150,234,154.54,234.41Z"/><path class="cls-1" d="M284.62,273.25c-2.93,3.1-6.81,4.77-10.42,6.78a153.23,153.23,0,0,1-57.42,18.65A147.15,147.15,0,0,1,157,293.62c-17.21-5.18-33.12-12.88-47-24.38-17.14-14.16-29.38-31.62-33-53.8-4.54-28.08,1.79-53.66,20.67-75.53,10.9-12.63,24.4-21,41.13-22.94,19.46-2.25,37.08,2.13,51.09,16.8A30.65,30.65,0,0,1,198.15,153c0,.51.26,1.13-.48,1.71a91.09,91.09,0,0,0-16.86-9.21c-23.8-9.53-49.27-4.32-66.94,14.08a61.93,61.93,0,0,0-17.38,37.64c-3.41,35,11.8,60.43,41.1,78.23,14.16,8.6,29.76,13.32,46.13,15.62a145.25,145.25,0,0,0,25.59,1.58,176.16,176.16,0,0,0,67-15.74c2.76-1.25,5.55-2.46,8.32-3.69Z"/><path class="cls-1" d="M153.07,275.91c60.36,7.83,116.34-6.07,168.43-36.85-1.14,1.2-2.52,2.75-4,4.17s-3.22,3-4.92,4.33c-22.93,18.35-49.22,29-77.93,34.24a183.85,183.85,0,0,1-41.42,2.64C181,283.92,165,281.22,153.07,275.91Z"/><path class="cls-1" d="M284.62,273.25l.56-.43.17.3-.73.13Z"/></g></g></svg>