<svg xmlns="http://www.w3.org/2000/svg" viewBox="0 0 3443.15 1325.18"><defs><style>.cls-1{font-size:65.36px;font-family:SerpentineDEE-BoldItal, SerpentineDEEBol;font-weight:700;font-style:italic;}.cls-1,.cls-2,.cls-3{fill:#1d1d1b;}.cls-2{font-size:26.33px;font-family:Lato-Light, Lato;font-weight:300;}</style></defs><g id="Layer_2" data-name="Layer 2"><g id="Layer_1-2" data-name="Layer 1"><text class="cls-1" transform="translate(3085.5 1281.15)">AQUA JET</text><text class="cls-2" transform="translate(3109.2 1318.24)">WATER SPORTS</text><path class="cls-3" d="M3295.69,1003.88c-8.55-7.35-17.47-13.21-27.63-16.86-28.34-10.18-54.47-6-77.72,13.16-17.23,14.19-26.31,33.06-29.31,55-2.58,18.88.09,36.83,9.41,53.58,9.45,17,23.18,29.71,39.81,39.45a131.71,131.71,0,0,0,49.17,16.86,145.52,145.52,0,0,0,77.84-10.31c28.45-12.07,51.13-31.4,69.88-55.65,4.07-5.26,7.89-10.7,11.62-16.25a95.69,95.69,0,0,1-4.28,16.77A161.12,161.12,0,0,1,3293,1206.89a155.17,155.17,0,0,1-38.27,2.93,161,161,0,0,1-138.91-93.29,155.66,155.66,0,0,1-13.82-50.16c-2.86-27.59.69-54.24,11.48-79.83,6.5-15.4,15.35-29.18,28.26-40.12a94.58,94.58,0,0,1,43.42-20.92c23.31-4.63,45.81-1.9,67.16,8.61,16.1,7.93,28.81,19.58,36.69,36A69.55,69.55,0,0,1,3295.69,1003.88Z"/><path class="cls-3" d="M3397,1097.24a150.71,150.71,0,0,0,3.66-19.06c2.62-22.33-.18-44-9.43-64.42-18.35-40.61-49.7-65.18-93.39-73.9a95.92,95.92,0,0,0-20.93-1.79,5.84,5.84,0,0,1-4-1.34c-15.53-12-33.2-18.75-52.6-21.19a111.86,111.86,0,0,0-56.83,7.38c-.37.15-.72.47-1.28.07A153.86,153.86,0,0,1,3183,909c26.7-14.93,55.42-22.15,85.92-20.37,54.39,3.16,97,27.69,127.52,72.85,13.55,20.08,21.52,42.42,24.67,66.46a151,151,0,0,1,1.07,31.23,5,5,0,0,1-.62,2.44c-7.43,11.7-14.51,23.62-23.19,34.47C3398.06,1096.5,3397.83,1097.13,3397,1097.24Z"/><path class="cls-3" d="M3219.2,1047.25c-.16-4.17,2.21-7.16,3.53-10.47.43-1.07,2-1.41,3.15-1.45,3-.12,6-.07,9,0a2.66,2.66,0,0,1,1.43.45c3,2.18,5.91,4.38,8.82,6.63.55.42,1.49.89,1.1,1.79-.32.73-1.25.47-1.86.39-2.12-.27-2.91.76-3.07,2.71a10.46,10.46,0,0,1-.64,2.47c-.33,1-1.22,1.66.32,2.85,1.07.82.23,2.91-.6,4.26a14.89,14.89,0,0,1-1.57,1.92.63.63,0,0,0,.74.6,22.25,22.25,0,0,1,9.9,2.29,22.16,22.16,0,0,0,8.22,1.8,13.93,13.93,0,0,1,6,1.32c1.82,1,2.82.33,3.9-1,1.47-1.79,3.18-3.39,4.47-5.29,1.9-2.81,4.29-3.15,7.37-2.47,5.51,1.22,10.9,2.87,16.33,4.38,10,2.79,20.38,4.54,30.11,8.35,5.48,2.15,11.09,3.39,16.76,4.81,10.28,2.58,20.79,2.9,31.08,4.87a51.57,51.57,0,0,1,13.92,5.12,14.93,14.93,0,0,1,4.29,3.21c1.27,1.39,1.21,2.58-.53,3.48a3.56,3.56,0,0,0-1.56,1.28c-5.84,10.08-15.32,15.64-25.45,20.31-15.63,7.21-32.25,11.19-49.09,14.27-24.29,4.43-48.78,6.71-73.5,5.76a37.2,37.2,0,0,1-12.32-2.13c-2-.79-3.86-1.68-4.19-4.33-.24-1.92-2.06-2.28-3.7-2.57-3.93-.7-4.19-1.4-2.46-5.07,2.51-5.34,4.85-10.75,7.26-16.14a2.64,2.64,0,0,0,.35-1.72,19.43,19.43,0,0,1,.58-9.12c.4-1.54.23-2.11-1.69-1.71-6.81,1.4-13.65.6-20.4-.53-4.7-.79-7.73-3.78-8.69-8.63a54.46,54.46,0,0,1-.94-7.63c-.07-1.32.26-2.71-.84-3.88-.61-.65-.11-1.47.28-2.14a62.37,62.37,0,0,1,11.45-14.74A15.15,15.15,0,0,1,3219.2,1047.25Zm97.56,26.09,0-.34c-2.82-.88-5.65-1.74-8.48-2.64-3.58-1.15-7.12-2.42-11-2.17a211,211,0,0,0-26.37,3.7,2.1,2.1,0,0,0-1.72,1.65c-.84,2.69-3.06,2.93-5.36,3s-5,.51-6.22-2.62c-1.37-3.5-3.9-5-7.83-4.78-6.68.42-13.16-.42-18.7-4.77-.66-.52-1.59-1-2.35-.23-2.73,2.58-6,4.51-8.4,7.49-1.33,1.66-.91,2.25,1.08,2.66,5.27,1.1,10.52,2.29,15.41,4.66a9.16,9.16,0,0,1,5.13,5.7,100.51,100.51,0,0,0,4.65,11.1c.94,2,2.15,2.42,4.15,2.17,6.44-.79,12.89-1.83,19.36-2.06,5-.17,7.84-2,9.13-6.81.42-1.56,1-3.44,2.88-4,1.61-.5,2.16-1.64,2.81-3,1.74-3.72,4-6.26,8.85-6.42C3301.48,1075.3,3309.12,1074.12,3316.76,1073.34ZM3239.93,1099l-4.52-7.33c-1,4.25-3.2,7.41-4,11.27C3233.51,1100.47,3235.89,1098.68,3239.93,1099Z"/><path class="cls-3" d="M3356.85,1133.92c-2.63,2.78-6.12,4.28-9.37,6.09a137.72,137.72,0,0,1-51.6,16.76,132.22,132.22,0,0,1-53.78-4.54c-15.47-4.66-29.76-11.58-42.28-21.92-15.41-12.72-26.41-28.42-29.63-48.35-4.08-25.23,1.61-48.22,18.58-67.88,9.8-11.36,21.93-18.88,37-20.62,17.5-2,33.33,1.92,45.92,15.1a27.53,27.53,0,0,1,7.48,17.31c0,.46.23,1-.43,1.53a82.57,82.57,0,0,0-15.15-8.27c-21.4-8.57-44.29-3.89-60.16,12.66a55.61,55.61,0,0,0-15.63,33.83c-3.06,31.45,10.6,54.31,36.94,70.3,12.73,7.74,26.75,12,41.46,14a130.3,130.3,0,0,0,23,1.42,158.3,158.3,0,0,0,60.21-14.14c2.48-1.13,5-2.21,7.48-3.32Z"/><path class="cls-3" d="M3238.62,1136.31c54.24,7,104.56-5.46,151.37-33.12-1,1.08-2.26,2.47-3.61,3.75s-2.89,2.66-4.42,3.89c-20.61,16.49-44.24,26-70,30.78a165.5,165.5,0,0,1-37.23,2.37C3263.67,1143.51,3249.34,1141.08,3238.62,1136.31Z"/><path class="cls-3" d="M3356.85,1133.92l.5-.39.15.27-.65.12Z"/><path d="M15,0C9.74,7,5.45,12.82,0,20.18L15,24.9Z"/></g></g></svg>