<svg xmlns="http://www.w3.org/2000/svg" viewBox="0 0 14 16.87"><defs><style>.cls-1{font-size:2.52px;font-family:SerpentineDEE-BoldItal, SerpentineDEEBol;font-weight:700;font-style:italic;}.cls-1,.cls-3{fill:#1d1d1b;}.cls-2{fill:#f8ae17;}.cls-3{font-size:1.02px;font-family:Lato-Light, Lato;font-weight:300;}.cls-4{fill:#08314c;}.cls-5{fill:#58ace1;}</style></defs><g id="Layer_2" data-name="Layer 2"><g id="Layer_1-2" data-name="Layer 1"><text class="cls-1" transform="translate(0.19 15.17)">AQUA <tspan class="cls-2" x="8.8" y="0">JET</tspan></text><text class="cls-3" transform="translate(1.11 16.6)">WATER SPORTS</text><path class="cls-4" d="M8.31,4.46a3.38,3.38,0,0,0-1.07-.65,2.91,2.91,0,0,0-3,.51A3.25,3.25,0,0,0,3.11,6.44a3.23,3.23,0,0,0,.36,2.07A4.11,4.11,0,0,0,5,10a5.17,5.17,0,0,0,1.9.65,5.65,5.65,0,0,0,3-.4,6.72,6.72,0,0,0,2.69-2.15,7.17,7.17,0,0,0,.45-.63,3.43,3.43,0,0,1-.16.65,6.15,6.15,0,0,1-1.62,2.54,6,6,0,0,1-3.07,1.6,6.17,6.17,0,0,1-1.48.12A6.23,6.23,0,0,1,1.36,8.81,6.16,6.16,0,0,1,.83,6.88a6.27,6.27,0,0,1,.44-3.09A4.2,4.2,0,0,1,2.36,2.24,3.64,3.64,0,0,1,4,1.44a3.93,3.93,0,0,1,2.59.33A2.87,2.87,0,0,1,8.05,3.16,2.6,2.6,0,0,1,8.31,4.46Z"/><path class="cls-2" d="M12.22,8.07a6.42,6.42,0,0,0,.14-.74A4.62,4.62,0,0,0,12,4.84,4.8,4.8,0,0,0,8.39,2a4.36,4.36,0,0,0-.81-.07.21.21,0,0,1-.15,0,4.08,4.08,0,0,0-2-.82,4.35,4.35,0,0,0-2.2.29.08.08,0,0,1-.05,0A6,6,0,0,1,4,.8,5.94,5.94,0,0,1,7.28,0,6.09,6.09,0,0,1,12.2,2.82a5.81,5.81,0,0,1,1,2.57,5.43,5.43,0,0,1,0,1.21.32.32,0,0,1,0,.09A14.67,14.67,0,0,1,12.28,8S12.25,8.06,12.22,8.07Z"/><path class="cls-4" d="M5.36,6.14a.94.94,0,0,1,.13-.41s.08-.05.12-.05H6L6.36,6A.06.06,0,0,1,6.4,6s-.05,0-.07,0-.11,0-.12.11a.32.32,0,0,1,0,.09s0,.07,0,.11,0,.12,0,.17,0,0-.06.07,0,0,0,0a1,1,0,0,1,.38.09.71.71,0,0,0,.32.07.86.86,0,0,1,.23,0,.1.1,0,0,0,.15,0l.17-.21a.24.24,0,0,1,.29-.09c.21,0,.42.11.63.17A9,9,0,0,1,9.47,7a4.81,4.81,0,0,0,.65.18c.4.1.8.12,1.2.19a2.06,2.06,0,0,1,.54.2.48.48,0,0,1,.16.12c.05.06.05.1,0,.14a.13.13,0,0,0-.06,0,2,2,0,0,1-1,.78,7.81,7.81,0,0,1-1.9.55,12.77,12.77,0,0,1-2.83.22,1.27,1.27,0,0,1-.48-.08c-.08,0-.15-.06-.16-.16s-.08-.09-.15-.1-.16-.06-.09-.2.19-.41.28-.62a.08.08,0,0,0,0-.07.82.82,0,0,1,0-.35c0-.06,0-.08-.07-.07a1.91,1.91,0,0,1-.79,0,.37.37,0,0,1-.33-.33c0-.1,0-.2,0-.3a.21.21,0,0,0,0-.15s0,0,0-.08a2.42,2.42,0,0,1,.44-.57A.57.57,0,0,1,5.36,6.14Zm3.76,1h0L8.8,7A1.26,1.26,0,0,0,8.37,7a7.14,7.14,0,0,0-1,.14.09.09,0,0,0-.06.06c0,.11-.12.12-.21.12s-.19,0-.24-.1A.27.27,0,0,0,6.54,7a1,1,0,0,1-.72-.18s-.07,0-.09,0a2.28,2.28,0,0,0-.33.29c-.05.06,0,.08,0,.1a2.45,2.45,0,0,1,.6.18.36.36,0,0,1,.2.22A2.3,2.3,0,0,0,6.42,8c0,.08.08.09.16.08.24,0,.49-.07.74-.08a.32.32,0,0,0,.36-.26.2.2,0,0,1,.11-.16c.06,0,.08-.06.11-.11a.35.35,0,0,1,.34-.25C8.53,7.22,8.83,7.17,9.12,7.14Zm-3,1L6,7.85c0,.17-.12.29-.15.44A.33.33,0,0,1,6.16,8.14Z"/><path class="cls-4" d="M10.67,9.48a1.26,1.26,0,0,1-.36.24,5.24,5.24,0,0,1-2,.65,5.05,5.05,0,0,1-2.08-.18,4.54,4.54,0,0,1-1.63-.85A3,3,0,0,1,3.46,7.48a3.12,3.12,0,0,1,.72-2.62,2.21,2.21,0,0,1,1.43-.8,2,2,0,0,1,1.77.58,1.07,1.07,0,0,1,.29.67s0,0,0,.06a3,3,0,0,0-.58-.32,2.07,2.07,0,0,0-2.32.49,2.14,2.14,0,0,0-.61,1.31A2.68,2.68,0,0,0,5.57,9.56a4.11,4.11,0,0,0,1.6.54,5.26,5.26,0,0,0,.89.06,6,6,0,0,0,2.32-.55l.29-.13Z"/><path class="cls-4" d="M6.11,9.58A9,9,0,0,0,12,8.3l-.14.14-.17.15a5.88,5.88,0,0,1-2.7,1.19,6.34,6.34,0,0,1-1.44.09A4.21,4.21,0,0,1,6.11,9.58Z"/><path class="cls-5" d="M10.67,9.48h0Z"/></g></g></svg>