<svg xmlns="http://www.w3.org/2000/svg" viewBox="0 0 22.41 6.76"><defs><style>.cls-1{font-size:2.69px;font-family:SerpentineDEE-BoldItal, SerpentineDEEBol;font-weight:700;font-style:italic;}.cls-1,.cls-3{fill:#1d1d1b;}.cls-2{fill:#f8ae17;}.cls-3{font-size:1.13px;font-family:Montserrat-Thin, Montserrat;font-weight:200;}.cls-4{fill:#08314c;}.cls-5{fill:#58ace1;}</style></defs><g id="Layer_2" data-name="Layer 2"><g id="Layer_1-2" data-name="Layer 1"><text class="cls-1" transform="translate(7.67 4.22)">AQUA <tspan class="cls-2" x="9.39" y="0">JET</tspan></text><text class="cls-3" transform="translate(10.47 5.75)">WATER SPORTS</text><path class="cls-4" d="M4.09,2.43a1.87,1.87,0,0,0-.58-.36,1.58,1.58,0,0,0-1.63.28,1.7,1.7,0,0,0-.62,1.16,1.75,1.75,0,0,0,.2,1.12,2.14,2.14,0,0,0,.83.83,2.73,2.73,0,0,0,1,.35A3,3,0,0,0,5,5.6,3.67,3.67,0,0,0,6.43,4.43a3.53,3.53,0,0,0,.24-.34,1.5,1.5,0,0,1-.09.35,3.19,3.19,0,0,1-.87,1.38A3.4,3.4,0,0,1,4,6.69a2.68,2.68,0,0,1-.8.06,3.25,3.25,0,0,1-1.63-.5A3.38,3.38,0,0,1,.31,4.79a3.15,3.15,0,0,1-.29-1A3.33,3.33,0,0,1,.26,2.06a2.25,2.25,0,0,1,.59-.84A2,2,0,0,1,1.77.78,2.15,2.15,0,0,1,3.18,1,1.62,1.62,0,0,1,4,1.72,1.53,1.53,0,0,1,4.09,2.43Z"/><path class="cls-2" d="M6.22,4.39A2.79,2.79,0,0,0,6.29,4,2.53,2.53,0,0,0,6.1,2.63a2.63,2.63,0,0,0-2-1.55,2.12,2.12,0,0,0-.44,0,.08.08,0,0,1-.08,0A2.17,2.17,0,0,0,2.51.57a2.34,2.34,0,0,0-1.2.16s0,0,0,0a4.27,4.27,0,0,1,.44-.3A3.27,3.27,0,0,1,3.53,0,3.3,3.3,0,0,1,6.21,1.54a3.17,3.17,0,0,1,.51,1.39,3.65,3.65,0,0,1,0,.66s0,0,0,.05a6,6,0,0,1-.48.72S6.23,4.39,6.22,4.39Z"/><path class="cls-4" d="M2.48,3.34a.53.53,0,0,1,.08-.22.07.07,0,0,1,.06,0h.22L3,3.24s0,0,0,0,0,0,0,0A.05.05,0,0,0,3,3.34s0,0,0,.05,0,0,0,.06,0,.06,0,.09l0,0h0a.54.54,0,0,1,.21.05.33.33,0,0,0,.17,0,.31.31,0,0,1,.13,0s.05,0,.08,0l.09-.12a.15.15,0,0,1,.16,0l.34.09a6.52,6.52,0,0,1,.63.18,2.3,2.3,0,0,0,.35.1c.22.06.44.06.66.1A1,1,0,0,1,6,4.1l.09.07s0,0,0,.07l0,0a1.19,1.19,0,0,1-.54.43,4.67,4.67,0,0,1-1,.3A7.27,7.27,0,0,1,3,5.12a1.09,1.09,0,0,1-.26,0c-.05,0-.08,0-.09-.09s0-.05-.08-.05-.09,0,0-.11l.15-.34s0,0,0,0a.31.31,0,0,1,0-.19s0,0,0,0a1.24,1.24,0,0,1-.43,0A.22.22,0,0,1,2,4s0-.1,0-.16a.12.12,0,0,0,0-.08s0,0,0,0a1.5,1.5,0,0,1,.24-.31A.31.31,0,0,1,2.48,3.34Zm2.05.55h0l-.18-.06a.59.59,0,0,0-.23,0,3.47,3.47,0,0,0-.55.08s0,0,0,0S3.47,4,3.42,4s-.1,0-.13-.05a.13.13,0,0,0-.16-.1.58.58,0,0,1-.4-.1,0,0,0,0,0,0,0c-.05.06-.12.1-.17.16s0,0,0,.06A1.17,1.17,0,0,1,2.85,4,.21.21,0,0,1,3,4.12a2.44,2.44,0,0,0,.1.24s0,0,.09,0,.27,0,.4,0,.17,0,.19-.14a.11.11,0,0,1,.07-.09s0,0,0-.06a.22.22,0,0,1,.19-.14C4.21,3.93,4.37,3.9,4.53,3.89Zm-1.61.54-.1-.16c0,.09-.06.16-.08.24A.19.19,0,0,1,2.92,4.43Z"/><path class="cls-4" d="M5.37,5.16a.64.64,0,0,1-.19.13,2.79,2.79,0,0,1-1.09.35A2.71,2.71,0,0,1,3,5.54a2.33,2.33,0,0,1-.88-.46,1.6,1.6,0,0,1-.63-1,1.72,1.72,0,0,1,.39-1.43,1.2,1.2,0,0,1,.78-.43,1.07,1.07,0,0,1,1,.32.54.54,0,0,1,.16.36s0,0,0,0a1.23,1.23,0,0,0-.32-.17A1.13,1.13,0,0,0,2.15,3a1.2,1.2,0,0,0-.33.71A1.45,1.45,0,0,0,2.6,5.2a2.43,2.43,0,0,0,.87.3l.48,0a3.52,3.52,0,0,0,1.27-.3l.15-.07Z"/><path class="cls-4" d="M2.89,5.21a4.87,4.87,0,0,0,3.18-.7L6,4.59l-.09.08a3.2,3.2,0,0,1-1.47.65,3.41,3.41,0,0,1-.78,0A2.3,2.3,0,0,1,2.89,5.21Z"/><path class="cls-5" d="M5.37,5.16h0Z"/></g></g></svg>