<svg xmlns="http://www.w3.org/2000/svg" viewBox="0 0 20.48 18.8"><defs><style>.cls-1{font-size:3.69px;font-family:SerpentineDEE-BoldItal, SerpentineDEEBol;font-weight:700;font-style:italic;}.cls-1,.cls-3{fill:#1d1d1b;}.cls-2{fill:#15679b;}.cls-3{font-size:1.55px;font-family:Montserrat-Thin, Montserrat;font-weight:200;}.cls-4{fill:#2f6db5;}</style></defs><g id="Layer_2" data-name="Layer 2"><g id="Layer_1-2" data-name="Layer 1"><text class="cls-1" transform="translate(0.28 16.39)">AQUA <tspan class="cls-2" x="12.86" y="0">JET</tspan></text><text class="cls-3" transform="translate(4.12 18.49)">WATER SPORTS</text><path d="M.65,10.41A5.93,5.93,0,0,1,5.82,8.87a12.23,12.23,0,0,1-.7-1.15.69.69,0,0,1,.06-.63c.25-.2.46,0,.62.24a5.34,5.34,0,0,0,.87,1.09c-.14-.27-.3-.53-.42-.81-.24-.59-.08-.9.56-.89a6.51,6.51,0,0,1,2,.27c1.5.48,3,1,4.48,1.53A27.66,27.66,0,0,0,10,7a32.84,32.84,0,0,0-3.84-.86,2.66,2.66,0,0,0-.89,0c-.62.11-.75.33-.65,1l-.14,0a3.38,3.38,0,0,1-.21-1,.86.86,0,0,1,.86-.73,12.63,12.63,0,0,1,2.46,0c.87.12,1.72.4,2.59.61,0-.05-1.22-.52-1.2-.57C7.63,5.22,7.5,5.33,6.1,5,6.56,4.69,7.51,3.84,8,3.47c0,.15-.44.72-.44.76l2.07-.47C9.46,3.21,9,3.28,8.48,3.3c.53-.35,1-.25,1.76.41L11,2.13l-.43-.55c.47-.14.9-.25.76-.91L10.45,1C10.6.23,11-.1,11.6,0c.32.06.61.81.51,1.23l1.58.88a1,1,0,0,0,.38,1.52c0,.14-.06.32,0,.43A2.1,2.1,0,0,1,14,6.24c-.36.73-.22,1,.56,1,.33,0,.8-.18.8.46,0,.06.28.12.58.23l-.58.6c.74.37,1.86.36,2.45,1.4l-2.61.54v.11L19.8,10l0,.1c-1.19.26-2.37.59-3.58.78a24.28,24.28,0,0,1-8.32-.56,15,15,0,0,0-5-.48A23.07,23.07,0,0,0,.65,10.41ZM11.54,5.64c.48-.42.19-1.49-.08-1.93-.32,0-.49.7-.9.72Zm1.36.19-.66.89.66.21Z"/><path class="cls-4" d="M2.67,11.34c2.29-1.53,5.44,0,7.93.23a21.06,21.06,0,0,0,7.78-.49c-3.42,2.92-8,1.25-11.83.25-1.27-.31-2.67-.65-3.82.09l-.06-.08Z"/></g></g></svg>