<svg xmlns="http://www.w3.org/2000/svg" viewBox="0 0 433.25 288.35"><defs><style>.cls-1{fill:#2f6db5;}</style></defs><g id="Layer_2" data-name="Layer 2"><g id="Layer_1-2" data-name="Layer 1"><path d="M0,235.13c32.85-28.78,71.32-42.83,116.9-34.8-5.8-9.16-11.89-17.08-15.94-25.94-1.78-3.88-1.21-11.86,1.51-14.12,5.59-4.66,10.31-.76,14,5.36a121.3,121.3,0,0,0,19.68,24.7c-3.19-6.11-6.88-12-9.49-18.37-5.53-13.47-2-20.45,12.6-20.25,14.91.2,30.43,1.63,44.51,6.15,33.78,10.82,66.87,23.78,101.13,34.54-24.3-11.35-47.8-25.14-73.11-33.38-28.07-9.15-57.74-13.52-86.84-19.3-6.45-1.28-13.59-.55-20.17.62-13.88,2.45-16.89,7.39-14.59,21.41l-3.16.71c-1.72-7.62-5.43-15.44-4.68-22.8,1-10.11,10.18-16.16,19.37-16.64,18.46-1,37.27-1.32,55.5,1.2,19.76,2.74,39,9,58.5,13.79.25-1-27.39-11.74-27.14-12.79-30.82-7.2-33.76-4.74-65.42-12.13,10.43-7.2,31.77-26.33,43.83-34.66.19,3.24-10,16.29-9.92,17.15L203.81,85C199,72.6,187.87,74.15,177,74.46c11.85-7.85,23.17-5.56,39.73,9.34l17.91-35.61-9.7-12.53c10.44-3.21,20.25-5.55,17.07-20.45L221.47,23C224.73,5.15,233.18-2.29,247.34.61c7.21,1.48,13.85,18.35,11.71,27.87l35.59,20c-7.72,14.74-4.62,25.17,8.56,34.19,0,3.26-1.23,7.28.2,9.76,9.8,16.93,5.4,32.79-2.61,48.62-8.28,16.39-5.06,21.66,12.71,22.17,7.41.22,18-4.15,17.94,10.38,0,1.26,6.35,2.56,13.22,5.15l-13.13,13.58c16.56,8.31,42,8.06,55.25,31.6L328,236.15c.06.82.13,1.63.19,2.44l104.51-12,.6,2.19c-26.95,6-53.68,13.43-80.9,17.59-63.49,9.71-126-.27-188.18-12.55C126.78,226.45,89.29,217.6,50.83,223,33.45,225.48,16.51,231.1,0,235.13ZM246,127.45c10.9-9.42,4.35-33.59-1.64-43.62-7.3.44-11.12,15.73-20.49,16.29Zm30.75,4.2-14.94,20.18,14.94,4.73Z"/><path class="cls-1" d="M45.69,256.3c28.39-23,67.83-14.37,100.93-9.52,35.43,5.22,70.1,15.35,105.76,17.81,12.74.79,25.59.81,38.33.57,14.48-.24,29.08-1,43.49-2.63,22.33-2.68,43.36-7.59,65.34-14.17l1.07,1.95c-11.86,10.11-25.66,17.92-40.22,23.95a190.31,190.31,0,0,1-45.69,12.25c-21.56,3.21-43.39,2-64.73-1.78C210.34,278,172.26,264.85,133.24,256,105,249.23,73.07,241.32,47,258.08l-1.33-1.78Z"/></g></g></svg>