<svg xmlns="http://www.w3.org/2000/svg" viewBox="0 0 603.85 182.08"><defs><style>.cls-1{font-size:72.58px;font-family:SerpentineDEE-BoldItal, SerpentineDEEBol;font-weight:700;font-style:italic;}.cls-1,.cls-3{fill:#1d1d1b;}.cls-2{fill:#f8ae17;}.cls-3{font-size:30.57px;font-family:Montserrat-Thin, Montserrat;font-weight:200;}.cls-4{fill:#08314c;}.cls-5{fill:#58ace1;}</style></defs><g id="Layer_2" data-name="Layer 2"><g id="Layer_1-2" data-name="Layer 1"><text class="cls-1" transform="translate(206.67 113.7)">AQUA <tspan class="cls-2" x="252.94" y="0">JET</tspan></text><text class="cls-3" transform="translate(282.11 154.88)">WATER SPORTS</text><path class="cls-4" d="M110.18,65.41a49.62,49.62,0,0,0-15.64-9.55c-16-5.76-30.83-3.39-44,7.45C40.79,71.34,35.65,82,34,94.46c-1.46,10.69,0,20.85,5.32,30.33S52.4,141.6,61.82,147.12a74.61,74.61,0,0,0,27.83,9.54,82.45,82.45,0,0,0,44.06-5.83c16.11-6.84,28.94-17.78,39.55-31.51,2.31-3,4.47-6,6.58-9.19a53.91,53.91,0,0,1-2.42,9.49,91.19,91.19,0,0,1-68.77,60.7A88.55,88.55,0,0,1,87,182,91.19,91.19,0,0,1,8.36,129.17a88.16,88.16,0,0,1-7.83-28.4A90.59,90.59,0,0,1,7,55.59c3.68-8.72,8.7-16.52,16-22.71A53.56,53.56,0,0,1,47.61,21a58.26,58.26,0,0,1,38,4.87C94.74,30.4,101.93,37,106.39,46.27A39.39,39.39,0,0,1,110.18,65.41Z"/><path class="cls-2" d="M167.5,118.25a85.21,85.21,0,0,0,2.08-10.79A67.94,67.94,0,0,0,164.24,71C153.85,48,136.1,34.1,111.37,29.16a55.24,55.24,0,0,0-11.84-1,3.33,3.33,0,0,1-2.25-.75,59.79,59.79,0,0,0-29.77-12,63.28,63.28,0,0,0-32.17,4.18c-.21.08-.41.27-.73,0a87.61,87.61,0,0,1,11.8-7.94C61.53,3.23,77.78-.86,95.05.15,125.84,1.94,150,15.83,167.23,41.39a86.31,86.31,0,0,1,14,37.62,85.59,85.59,0,0,1,.61,17.67,2.84,2.84,0,0,1-.35,1.39c-4.21,6.61-8.21,13.37-13.12,19.51C168.12,117.83,168,118.19,167.5,118.25Z"/><path class="cls-4" d="M66.88,90c-.09-2.36,1.26-4,2-5.92.24-.61,1.12-.8,1.79-.83,1.69-.06,3.39,0,5.08,0a1.53,1.53,0,0,1,.81.26c1.68,1.23,3.35,2.47,5,3.75.31.24.85.51.63,1s-.71.27-1.06.23c-1.2-.16-1.64.43-1.73,1.53A6.21,6.21,0,0,1,79,91.35c-.18.57-.68,1,.19,1.62.6.46.13,1.65-.34,2.41A9.79,9.79,0,0,1,78,96.47c0,.29.22.34.42.34A12.53,12.53,0,0,1,84,98.1a12.42,12.42,0,0,0,4.65,1,8,8,0,0,1,3.38.75c1,.55,1.59.19,2.2-.56.83-1,1.81-1.91,2.53-3,1.08-1.59,2.43-1.78,4.17-1.4,3.13.69,6.18,1.63,9.25,2.48,5.68,1.58,11.54,2.57,17,4.73a77.12,77.12,0,0,0,9.49,2.72c5.82,1.46,11.77,1.64,17.59,2.76a29.27,29.27,0,0,1,7.88,2.89,8.51,8.51,0,0,1,2.43,1.82c.72.79.69,1.47-.3,2a1.94,1.94,0,0,0-.88.72c-3.31,5.7-8.68,8.85-14.41,11.49-8.85,4.09-18.26,6.34-27.79,8.08a190.28,190.28,0,0,1-41.6,3.26,20.94,20.94,0,0,1-7-1.21c-1.13-.44-2.19-.95-2.37-2.44-.14-1.09-1.17-1.3-2.1-1.46-2.23-.39-2.37-.79-1.39-2.87,1.42-3,2.74-6.09,4.11-9.13a1.59,1.59,0,0,0,.2-1,10.87,10.87,0,0,1,.32-5.16c.23-.88.13-1.19-1-1-3.86.79-7.73.34-11.55-.3A5.72,5.72,0,0,1,54,108.44a29.68,29.68,0,0,1-.53-4.31c0-.75.15-1.54-.48-2.2-.34-.37-.06-.83.16-1.21a35.32,35.32,0,0,1,6.48-8.35A8.61,8.61,0,0,1,66.88,90Zm55.23,14.77v-.19c-1.6-.5-3.2-1-4.8-1.5a17,17,0,0,0-6.22-1.23,121.06,121.06,0,0,0-14.93,2.1,1.21,1.21,0,0,0-1,.93c-.47,1.53-1.73,1.66-3,1.68s-2.84.29-3.53-1.48a4,4,0,0,0-4.42-2.71c-3.79.24-7.45-.24-10.59-2.7-.37-.3-.9-.54-1.33-.13-1.54,1.46-3.41,2.55-4.76,4.24-.75.94-.51,1.27.62,1.51a37,37,0,0,1,8.72,2.63,5.2,5.2,0,0,1,2.9,3.23,56.54,56.54,0,0,0,2.64,6.29,1.91,1.91,0,0,0,2.35,1.22c3.64-.45,7.29-1,11-1.16,2.81-.1,4.44-1.15,5.17-3.86a2.84,2.84,0,0,1,1.63-2.27c.91-.28,1.23-.93,1.59-1.71,1-2.1,2.28-3.54,5-3.64C113.46,105.83,117.78,105.16,122.11,104.72ZM78.62,119.25l-2.56-4.15c-.55,2.41-1.81,4.2-2.26,6.38A5.27,5.27,0,0,1,78.62,119.25Z"/><path class="cls-4" d="M144.8,139c-1.49,1.58-3.47,2.43-5.31,3.45a78,78,0,0,1-29.2,9.49,75,75,0,0,1-30.44-2.57A67.66,67.66,0,0,1,55.91,137c-8.72-7.2-14.95-16.09-16.77-27.37-2.31-14.28.91-27.29,10.52-38.42,5.54-6.43,12.41-10.69,20.92-11.67,9.9-1.15,18.87,1.08,26,8.54a15.63,15.63,0,0,1,4.24,9.8c0,.26.13.58-.25.87A46.25,46.25,0,0,0,92,74c-12.1-4.85-25.06-2.2-34.05,7.16a31.51,31.51,0,0,0-8.84,19.15c-1.74,17.8,6,30.74,20.91,39.79a60.79,60.79,0,0,0,23.47,8,73.61,73.61,0,0,0,13,.81,89.83,89.83,0,0,0,34.08-8c1.41-.64,2.83-1.25,4.24-1.88Z"/><path class="cls-4" d="M77.87,140.36c30.71,4,59.19-3.08,85.69-18.74-.58.61-1.28,1.4-2,2.12s-1.64,1.51-2.51,2.2c-11.66,9.34-25,14.74-39.64,17.42a93.77,93.77,0,0,1-21.08,1.35C92.05,144.44,84,143.07,77.87,140.36Z"/><path class="cls-5" d="M144.8,139l.28-.22.09.15-.37.07Z"/></g></g></svg>