<svg xmlns="http://www.w3.org/2000/svg" viewBox="0 0 362.65 436.85"><defs><style>.cls-1{font-size:65.36px;font-family:SerpentineDEE-BoldItal, SerpentineDEEBol;font-weight:700;font-style:italic;}.cls-1,.cls-3{fill:#1d1d1b;}.cls-2{fill:#f8ae17;}.cls-3{font-size:26.33px;font-family:Lato-Light, Lato;font-weight:300;}.cls-4{fill:#08314c;}.cls-5{fill:#58ace1;}</style></defs><g id="Layer_2" data-name="Layer 2"><g id="Layer_1-2" data-name="Layer 1"><text class="cls-1" transform="translate(5.01 392.82)">AQUA <tspan class="cls-2" x="227.76" y="0">JET</tspan></text><text class="cls-3" transform="translate(28.71 429.91)">WATER SPORTS</text><path class="cls-4" d="M215.2,115.55c-8.56-7.35-17.47-13.22-27.64-16.87-28.33-10.18-54.46-6-77.71,13.16-17.23,14.2-26.32,33.07-29.31,55-2.58,18.88.09,36.83,9.41,53.57,9.45,17,23.18,29.71,39.81,39.46a131.59,131.59,0,0,0,49.17,16.86,145.53,145.53,0,0,0,77.84-10.31c28.45-12.07,51.13-31.4,69.88-55.66,4.06-5.26,7.88-10.7,11.61-16.24A94.69,94.69,0,0,1,334,211.32a161.1,161.1,0,0,1-121.5,107.24,155.58,155.58,0,0,1-38.26,2.93A161.07,161.07,0,0,1,35.31,228.2,155.9,155.9,0,0,1,21.49,178c-2.85-27.58.69-54.24,11.49-79.82C39.47,82.81,48.33,69,61.24,58.09a94.48,94.48,0,0,1,43.42-20.92c23.31-4.63,45.81-1.9,67.15,8.61,16.11,7.93,28.81,19.57,36.69,36A69.42,69.42,0,0,1,215.2,115.55Z"/><path class="cls-2" d="M316.47,208.91a150.86,150.86,0,0,0,3.66-19.07c2.62-22.33-.18-44-9.43-64.42-18.35-40.6-49.71-65.17-93.39-73.9a96.59,96.59,0,0,0-20.93-1.78,5.84,5.84,0,0,1-4-1.34c-15.53-12-33.21-18.75-52.6-21.2A111.86,111.86,0,0,0,83,34.59c-.37.15-.72.47-1.28.07a153.45,153.45,0,0,1,20.84-14C129.25,5.7,158-1.51,188.46.26,242.86,3.43,285.5,28,316,73.12c13.55,20.08,21.51,42.41,24.66,66.46a150.32,150.32,0,0,1,1.07,31.23,4.91,4.91,0,0,1-.61,2.44c-7.43,11.69-14.51,23.62-23.19,34.47C317.57,208.16,317.34,208.8,316.47,208.91Z"/><path class="cls-4" d="M138.71,158.91c-.16-4.16,2.21-7.15,3.53-10.47.42-1.06,2-1.4,3.15-1.45,3-.11,6-.06,9,0a2.53,2.53,0,0,1,1.44.45c3,2.17,5.91,4.37,8.82,6.63.54.42,1.49.89,1.1,1.78s-1.25.48-1.87.4c-2.11-.27-2.9.76-3.06,2.7a10.83,10.83,0,0,1-.64,2.47c-.33,1-1.22,1.67.32,2.86,1.06.82.23,2.91-.6,4.26a18.7,18.7,0,0,1-1.57,1.92.63.63,0,0,0,.74.6,22.24,22.24,0,0,1,9.9,2.28,22,22,0,0,0,8.22,1.81,13.79,13.79,0,0,1,6,1.32c1.82,1,2.81.33,3.89-1,1.47-1.78,3.19-3.38,4.48-5.28,1.9-2.81,4.29-3.15,7.36-2.47,5.52,1.21,10.91,2.86,16.34,4.37,10,2.8,20.38,4.55,30.1,8.36a136.92,136.92,0,0,0,16.77,4.81c10.28,2.58,20.79,2.89,31.08,4.86a52.06,52.06,0,0,1,13.91,5.12,15.06,15.06,0,0,1,4.3,3.22c1.27,1.39,1.21,2.58-.53,3.48a3.44,3.44,0,0,0-1.56,1.28c-5.84,10.08-15.33,15.63-25.45,20.3-15.64,7.22-32.26,11.2-49.09,14.27-24.3,4.44-48.78,6.71-73.5,5.76a36.91,36.91,0,0,1-12.32-2.13c-2-.78-3.86-1.68-4.19-4.32-.24-1.92-2.06-2.28-3.71-2.57-3.93-.7-4.18-1.41-2.46-5.07,2.52-5.34,4.86-10.76,7.27-16.14a2.72,2.72,0,0,0,.35-1.72,19.21,19.21,0,0,1,.58-9.13c.4-1.54.23-2.1-1.69-1.7-6.82,1.4-13.66.6-20.4-.53-4.7-.79-7.74-3.78-8.69-8.64a52.72,52.72,0,0,1-1-7.62c-.06-1.33.27-2.71-.83-3.89-.61-.64-.11-1.47.27-2.14a62.61,62.61,0,0,1,11.46-14.74A15.18,15.18,0,0,1,138.71,158.91ZM236.27,185l0-.33c-2.83-.88-5.66-1.75-8.48-2.65-3.58-1.14-7.12-2.41-11-2.17a212.68,212.68,0,0,0-26.36,3.7,2.1,2.1,0,0,0-1.72,1.66c-.84,2.69-3.06,2.92-5.36,3s-5,.5-6.23-2.62c-1.36-3.5-3.89-5-7.82-4.78-6.69.42-13.16-.43-18.7-4.78-.66-.52-1.59-1-2.36-.23-2.72,2.58-6,4.52-8.39,7.49-1.33,1.66-.91,2.25,1.08,2.67,5.26,1.1,10.51,2.29,15.41,4.65a9.23,9.23,0,0,1,5.13,5.71,98.63,98.63,0,0,0,4.65,11.1c.94,2,2.15,2.42,4.15,2.17,6.44-.79,12.89-1.83,19.36-2.06,5-.18,7.84-2,9.13-6.82.42-1.55,1-3.43,2.88-4,1.61-.5,2.16-1.64,2.81-3,1.74-3.72,4-6.27,8.85-6.43C221,187,228.62,185.79,236.27,185Zm-76.83,25.67c-1.63-2.64-2.93-4.74-4.52-7.33-1,4.26-3.2,7.42-4,11.28C153,212.14,155.4,210.34,159.44,210.67Z"/><path class="cls-4" d="M276.35,245.58c-2.63,2.79-6.12,4.29-9.37,6.1a137.61,137.61,0,0,1-51.59,16.76,132.39,132.39,0,0,1-53.78-4.54c-15.47-4.67-29.77-11.58-42.28-21.92-15.41-12.73-26.41-28.42-29.63-48.35-4.08-25.23,1.6-48.22,18.57-67.89,9.8-11.35,21.93-18.88,37-20.61,17.5-2,33.33,1.91,45.92,15.09a27.61,27.61,0,0,1,7.48,17.31c0,.47.23,1-.43,1.54a82.33,82.33,0,0,0-15.16-8.27c-21.39-8.57-44.28-3.89-60.16,12.65a55.7,55.7,0,0,0-15.62,33.83c-3.07,31.46,10.6,54.31,36.94,70.31,12.73,7.73,26.75,12,41.46,14a131.2,131.2,0,0,0,23,1.42,158.53,158.53,0,0,0,60.21-14.14c2.48-1.13,5-2.22,7.48-3.32Z"/><path class="cls-4" d="M158.12,248c54.25,7,104.57-5.45,151.38-33.11-1,1.08-2.27,2.47-3.61,3.75s-2.89,2.66-4.43,3.88c-20.6,16.5-44.23,26-70,30.78a164.93,164.93,0,0,1-37.23,2.38C183.18,255.17,168.85,252.75,158.12,248Z"/><path class="cls-5" d="M276.36,245.59l.5-.39.15.27-.66.11Z"/></g></g></svg>